<svg xmlns="http://www.w3.org/2000/svg" width="1580" height="990" viewBox="0 0 1580 990">
<defs><style>
.bg{fill:#101217}.panel{fill:#151a1e;stroke:#30363c;stroke-width:1.5}.row{fill:#171c20;stroke:#354049;stroke-width:1}.title{fill:#eeefff;font:bold 22px Arial,sans-serif}.white{fill:#eeefff;font:13px Arial,sans-serif}.small{fill:#a7a8aa;font:12px Arial,sans-serif}.orange{fill:#ff5500;font:bold 15px Arial,sans-serif}.line{stroke:#354049;stroke-width:1}.input{fill:#1e252a;stroke:#46525c;stroke-width:1}.button{fill:#1e252a;stroke:#46525c;stroke-width:1}
</style></defs>
<rect width="1580" height="990" fill="#0d0f13"/>
<text x="28" y="40" class="title">Подключение потока данных · скринер · эскиз Android</text>
<text x="28" y="64" class="small">Состав полей и порядок блоков настольной формы; значения заполняются ответом VPS</text>
<text x="30" y="95" class="white">Телефон · вертикальная прокрутка</text>
<rect x="28" y="109" width="370" height="850" rx="17" class="bg" stroke="#555b61" stroke-width="2"/>
<text x="44" y="139" class="orange">‹ Чарт</text><text x="150" y="139" class="white">main · вкладка скринера</text>
<text x="44" y="166" class="white">Подключение потока данных</text>
<rect x="43" y="178" width="340" height="3" fill="#fcee21"/>
<text x="45" y="209" class="orange">Торговый сервер</text><rect x="178" y="190" width="205" height="35" class="input"/><text x="191" y="213" class="white">—  ▾</text>
<text x="45" y="252" class="orange">Исполнение ордеров</text>
<text x="53" y="281" class="small">Портфель для операций</text><rect x="218" y="262" width="165" height="32" class="input"/><text x="229" y="284" class="white">—  ▾</text>
<rect x="53" y="306" width="17" height="17" class="input"/><text x="79" y="320" class="white">Исполнять сделки в эмуляторе</text>
<text x="53" y="349" class="small">Тип комиссии</text><rect x="218" y="330" width="165" height="32" class="input"/><text x="229" y="352" class="white">—  ▾</text>
<text x="53" y="387" class="small">Значение комиссии</text><rect x="218" y="368" width="165" height="32" class="input"/><text x="229" y="390" class="white">—</text>
<text x="45" y="432" class="orange">Настройки свечей</text>
<text x="53" y="461" class="small">Из чего собираем свечи</text><rect x="222" y="442" width="161" height="32" class="input"/><text x="233" y="464" class="white">—  ▾</text>
<rect x="53" y="488" width="17" height="17" class="input"/><text x="79" y="502" class="white">Сохранять трейды в свече</text>
<text x="53" y="533" class="small">Тип свечей</text><rect x="222" y="514" width="161" height="32" class="input"/><text x="233" y="536" class="white">—  ▾</text>
<text x="53" y="571" class="small">ТаймФрейм</text><rect x="222" y="552" width="161" height="32" class="input"/><text x="233" y="574" class="white">—  ▾</text>
<text x="45" y="618" class="orange">Инструменты</text><text x="283" y="618" class="small">selected: —</text>
<text x="53" y="649" class="small">Класс бумаг</text><rect x="205" y="629" width="178" height="32" class="input"/><text x="217" y="652" class="white">—  ▾</text>
<rect x="43" y="674" width="187" height="32" class="input"/><text x="55" y="696" class="small">поиск...</text>
<rect x="246" y="681" width="17" height="17" class="input"/><text x="270" y="695" class="white">Выбрать все</text>
<rect x="43" y="719" width="340" height="148" class="panel"/>
<text x="53" y="741" class="small">Номер</text><text x="116" y="741" class="small">Тип</text><text x="166" y="741" class="small">Имя</text><text x="245" y="741" class="small">Код</text><text x="344" y="741" class="small">Вкл</text>
<path d="M49 751 H377" class="line"/><text x="53" y="777" class="white">—</text><text x="116" y="777" class="white">—</text><text x="166" y="777" class="white">—</text><text x="245" y="777" class="white">—</text><rect x="346" y="760" width="16" height="16" class="input"/>
<path d="M49 791 H377" class="line"/><text x="53" y="817" class="white">—</text><text x="116" y="817" class="white">—</text><text x="166" y="817" class="white">—</text><text x="245" y="817" class="white">—</text><rect x="346" y="800" width="16" height="16" class="input"/>
<rect x="233" y="884" width="150" height="45" class="button"/><text x="284" y="912" class="white">Принять</text>
<text x="427" y="95" class="white">Планшет · два исходных столбца</text>
<rect x="422" y="109" width="1128" height="850" rx="13" class="bg" stroke="#555b61" stroke-width="2"/>
<text x="441" y="140" class="orange">‹ Чарт</text><text x="546" y="140" class="white">main · Подключение потока данных — вкладка скринера</text>
<rect x="438" y="155" width="1095" height="3" fill="#fcee21"/>
<rect x="438" y="175" width="520" height="721" class="panel"/><rect x="969" y="175" width="564" height="721" class="panel"/>
<text x="454" y="212" class="orange">Торговый сервер</text><rect x="690" y="188" width="244" height="37" class="input"/><text x="704" y="213" class="white">—  ▾</text>
<text x="454" y="262" class="orange">Исполнение ордеров</text>
<text x="470" y="303" class="small">Портфель для операций</text><rect x="690" y="281" width="244" height="35" class="input"/><text x="704" y="304" class="white">—  ▾</text>
<rect x="470" y="335" width="18" height="18" class="input"/><text x="499" y="350" class="white">Исполнять сделки в эмуляторе</text>
<text x="470" y="393" class="small">Тип комиссии</text><rect x="690" y="372" width="244" height="35" class="input"/><text x="704" y="396" class="white">—  ▾</text>
<text x="470" y="440" class="small">Значение комиссии</text><rect x="690" y="419" width="244" height="35" class="input"/><text x="704" y="443" class="white">—</text>
<text x="454" y="498" class="orange">Настройки свечей</text>
<text x="470" y="548" class="small">Из чего собираем свечи</text><rect x="690" y="526" width="244" height="35" class="input"/><text x="704" y="550" class="white">—  ▾</text>
<rect x="470" y="580" width="18" height="18" class="input"/><text x="499" y="595" class="white">Сохранять трейды в свече</text>
<text x="470" y="641" class="small">Тип свечей</text><rect x="690" y="619" width="244" height="35" class="input"/><text x="704" y="643" class="white">—  ▾</text>
<text x="470" y="691" class="small">ТаймФрейм</text><rect x="690" y="669" width="244" height="35" class="input"/><text x="704" y="693" class="white">—  ▾</text>
<text x="985" y="213" class="orange">Инструменты</text><text x="1238" y="213" class="small">selected: —</text>
<text x="985" y="260" class="small">Класс бумаг</text><rect x="1099" y="237" width="180" height="35" class="input"/><text x="1112" y="260" class="white">—  ▾</text>
<rect x="1290" y="237" width="227" height="35" class="input"/><text x="1303" y="260" class="small">поиск...</text>
<rect x="985" y="292" width="18" height="18" class="input"/><text x="1013" y="307" class="white">Выбрать все</text>
<rect x="985" y="330" width="532" height="518" class="panel"/>
<text x="995" y="354" class="small">Номер</text><text x="1070" y="354" class="small">Тип</text><text x="1160" y="354" class="small">Имя</text><text x="1290" y="354" class="small">Код</text><text x="1465" y="354" class="small">Вкл</text>
<path d="M990 365 H1511 M990 410 H1511 M990 455 H1511" class="line"/>
<text x="995" y="395" class="white">—</text><text x="1070" y="395" class="white">—</text><text x="1160" y="395" class="white">—</text><text x="1290" y="395" class="white">—</text><rect x="1470" y="379" width="16" height="16" class="input"/>
<text x="995" y="440" class="white">—</text><text x="1070" y="440" class="white">—</text><text x="1160" y="440" class="white">—</text><text x="1290" y="440" class="white">—</text><rect x="1470" y="424" width="16" height="16" class="input"/>
<rect x="1367" y="884" width="150" height="45" class="button"/><text x="1417" y="912" class="white">Принять</text>
</svg>
